<?xml version="1.0" standalone="no"?>
<!DOCTYPE svg PUBLIC "-//W3C//DTD SVG 20010904//EN"
 "http://www.w3.org/TR/2001/REC-SVG-20010904/DTD/svg10.dtd">
<svg version="1.0" xmlns="http://www.w3.org/2000/svg"
 width="980.000000pt" height="980.000000pt" viewBox="0 0 980.000000 980.000000"
 preserveAspectRatio="xMidYMid meet">

<g transform="translate(0.000000,980.000000) scale(0.100000,-0.100000)"
fill="#000000" stroke="none">
<path d="M0 4900 l0 -4900 4900 0 4900 0 0 4900 0 4900 -4900 0 -4900 0 0
-4900z m5040 1787 c226 -48 474 -148 625 -252 197 -135 325 -245 325 -279 0
-31 -197 -226 -229 -226 -14 0 -49 24 -94 66 -536 491 -1397 497 -1957 13 -63
-55 -87 -69 -104 -65 -12 3 -65 50 -119 104 -110 112 -116 130 -64 177 240
222 559 388 870 455 160 35 212 39 427 35 170 -3 225 -8 320 -28z m-205 -477
c281 -33 545 -154 753 -347 27 -26 42 -49 42 -64 0 -32 -195 -229 -227 -229
-12 0 -44 21 -72 46 -99 90 -221 161 -349 204 -314 104 -699 26 -934 -189 -31
-28 -65 -51 -77 -51 -33 0 -221 197 -221 231 0 64 254 242 455 320 203 78 410
104 630 79z m90 -525 c140 -50 315 -172 315 -219 0 -11 -46 -65 -102 -122
-109 -111 -136 -125 -173 -84 -65 72 -190 115 -309 107 -85 -5 -183 -37 -178
-57 1 -6 -2 -9 -8 -5 -6 4 -28 -7 -49 -24 -60 -48 -75 -43 -178 62 -99 100
-119 129 -105 153 17 30 119 105 197 144 129 65 205 81 370 77 123 -3 150 -7
220 -32z m-1351 -291 c14 -6 16 -101 16 -975 0 -947 0 -969 -19 -979 -11 -6
-88 -10 -180 -10 -132 0 -162 3 -175 16 -14 14 -16 116 -16 978 0 529 3 966 7
969 8 9 346 9 367 1z m3412 -5 c3 -6 6 -84 6 -172 -1 -141 -3 -163 -18 -174
-14 -10 -89 -13 -306 -13 l-288 0 0 -774 c0 -696 -2 -776 -16 -791 -13 -13
-40 -15 -177 -13 -161 3 -161 3 -174 28 -10 19 -13 193 -13 788 l0 762 -263 0
c-212 0 -267 3 -283 14 -17 13 -19 27 -19 168 0 84 3 161 7 171 7 16 53 17
772 17 545 0 767 -3 772 -11z m-2083 -343 c312 -79 535 -322 593 -646 64 -361
-122 -727 -446 -877 -125 -58 -215 -76 -360 -71 -107 4 -138 9 -216 36 -107
36 -156 62 -238 127 -198 157 -310 388 -308 640 1 174 42 319 127 450 22 33
38 65 36 70 -1 6 0 7 4 4 3 -4 34 23 69 60 34 36 64 66 67 66 2 0 26 15 52 34
175 120 409 160 620 107z"/>
<path d="M4455 6609 c-170 -22 -377 -85 -539 -166 -116 -57 -312 -186 -373
-245 l-33 -32 49 -48 c27 -26 53 -48 59 -48 18 0 72 51 65 62 -4 7 -1 8 6 3 7
-4 22 1 34 13 63 56 239 156 372 210 80 33 212 70 315 89 136 25 411 24 545
-1 288 -54 573 -189 766 -363 l40 -36 55 54 54 54 -58 49 c-265 223 -583 363
-922 405 -99 13 -335 12 -435 0z"/>
<path d="M4535 6114 c-238 -36 -437 -121 -610 -258 -27 -22 -52 -41 -54 -43
-3 -2 19 -28 48 -57 l53 -54 72 54 c137 105 313 175 504 201 234 32 479 -20
690 -145 37 -22 89 -59 115 -82 l48 -43 55 54 54 53 -22 23 c-29 31 -180 134
-243 166 -178 89 -334 128 -535 132 -80 2 -158 1 -175 -1z"/>
<path d="M4605 5619 c-76 -8 -120 -19 -193 -50 -50 -22 -152 -88 -152 -99 0
-8 96 -100 104 -100 3 0 28 13 55 30 90 52 179 73 290 68 104 -6 161 -24 250
-78 l51 -32 53 52 52 51 -35 30 c-109 94 -300 146 -475 128z"/>
<path d="M3296 5253 c-7 -57 -8 -1686 0 -1707 4 -10 28 -14 100 -15 l94 -2 0
886 0 885 -94 0 -93 0 -7 -47z"/>
<path d="M5530 5231 c0 -110 -27 -101 286 -101 151 0 275 -1 276 -2 2 -2 5
-356 8 -788 l5 -785 88 -3 87 -3 0 779 c0 592 3 781 12 790 9 9 90 12 304 12
336 0 307 -10 302 104 l-3 66 -682 0 -683 0 0 -69z"/>
<path d="M4551 4949 c-286 -77 -479 -301 -521 -606 -26 -196 40 -411 171 -556
156 -173 322 -243 549 -234 170 6 288 54 424 172 52 44 163 193 170 226 2 8
10 30 18 49 9 19 24 71 33 114 21 93 16 242 -11 341 -21 79 -89 209 -134 257
-20 21 -35 38 -32 38 2 0 -1 7 -8 15 -7 9 -14 14 -16 12 -2 -2 -23 15 -47 37
-134 128 -399 188 -596 135z m260 -189 c242 -46 417 -291 395 -549 -19 -206
-147 -371 -339 -436 -174 -58 -356 -16 -485 113 -106 105 -152 218 -152 372 0
325 272 558 581 500z"/>
<path d="M4595 4647 c-88 -33 -148 -79 -194 -148 -51 -76 -72 -146 -72 -238
-1 -170 81 -301 233 -378 85 -43 264 -43 310 0 8 6 20 13 28 15 27 6 81 53 74
64 -4 6 -2 8 4 5 13 -9 56 42 86 102 115 229 -4 514 -244 585 -74 22 -153 19
-225 -7z"/>
</g>
</svg>
